<svg width="44" height="59" viewBox="0 0 44 59" fill="none" xmlns="http://www.w3.org/2000/svg">
<path fill-rule="evenodd" clip-rule="evenodd" d="M43.9952 38.1693C43.8642 31.6961 40.7879 27.245 37.1037 24.1325C37.7496 22.1818 38.1112 19.9568 38.1179 17.4451C38.1414 11.4377 36.0257 7.04332 32.8117 4.1564C29.6223 1.29441 25.4411 0 21.4378 0H0.111947V25.9846H23.9007C24.7718 25.9982 25.6373 26.127 26.4755 26.3677C24.8567 27.3538 22.8114 27.8298 20.4852 27.8298H0V59H22.3894C27.9319 59 33.2885 57.4132 37.2448 53.9935C41.2312 50.5523 44.1351 45.1434 43.9952 38.1693ZM35.7917 52.2661C32.3348 55.2516 27.539 56.7308 22.3894 56.7308H2.23894V30.0945H20.4863C23.6925 30.0945 26.7161 29.2875 28.9853 27.3198C29.8852 27.7581 30.7423 28.281 31.5455 28.8817L31.4336 28.9837C28.7916 31.3832 25.1993 32.5167 21.4367 32.5167H6.21306V54.3211H23.9007C32.5564 54.3211 38.8456 46.9785 38.8456 38.1693C38.8456 34.3529 37.1821 31.194 34.8927 28.8318L34.8345 28.774C32.7894 26.7607 30.3187 25.2448 27.6095 24.3411L27.5658 24.3263C26.3803 23.9422 25.1453 23.7372 23.9007 23.7177H4.17338H2.35089V2.26692H21.4378C24.991 2.26692 28.6125 3.41852 31.3261 5.85545C34.0128 8.26972 35.9003 12.0249 35.879 17.4394C35.8896 19.2208 35.6595 20.9952 35.195 22.7134C34.3114 22.1394 33.3872 21.6321 32.4299 21.1957C32.6923 19.9287 32.8166 18.6364 32.8005 17.3419C32.777 12.85 31.1213 9.69222 28.4547 7.69506C25.8452 5.73984 22.4095 5.00083 18.975 5.00083H5.4854V21.2796H22.3894C24.7206 21.287 27.0367 21.6582 29.2562 22.3802L29.2831 22.3881C30.1316 22.6606 30.9602 22.9932 31.7627 23.3833V23.3776C32.3789 23.6703 32.9791 23.9964 33.5606 24.3547C33.6322 24.3977 33.7028 24.4408 33.7733 24.4861C34.7429 25.0855 35.644 25.7918 36.46 26.5921C39.2508 29.2829 41.7058 32.876 41.8122 38.1693C41.9476 44.5246 39.2195 49.3055 35.7917 52.2661ZM32.9292 30.6737C33.0411 30.5751 33.1453 30.4753 33.2505 30.3733C35.2443 32.4136 36.6089 35.0511 36.6089 38.1693C36.6089 45.9165 31.1436 52.0542 23.9029 52.0542H8.45199V34.7859H21.4378C25.6235 34.7859 29.7891 33.5255 32.9292 30.6737ZM30.5615 17.3487C30.5733 18.3537 30.4908 19.3575 30.3152 20.3467C27.7618 19.4714 25.0852 19.0209 22.3894 19.0127H7.72434V7.26208H18.975C22.1442 7.26208 25.0403 7.95122 27.1214 9.512C29.1499 11.032 30.5414 13.4814 30.5615 17.3487Z" fill="#F6F6F6"/>
</svg>
