<svg width="18" height="18" viewBox="0 0 18 18" fill="none" xmlns="http://www.w3.org/2000/svg">
<path d="M17.9951 4.81652C17.8802 2.14109 15.6677 0 12.965 0H5.0355C2.33186 0 0.119323 2.14155 0.00490789 4.81729C0.0015337 4.88999 0 4.96253 0 5.03554V12.9648C0 13.3171 0.0365024 13.6614 0.105826 13.9933C0.420536 15.5 2.05713 17.3375 3.61681 17.7968C4.0668 17.9293 4.54317 18.0003 5.0355 18.0003H12.965C13.4573 18.0003 13.9335 17.9293 14.3836 17.7968C15.9427 17.3378 17.5802 15.5 17.8942 13.9945C17.9635 13.6621 18 13.3175 18 12.9648V5.03554C18 4.96207 17.9985 4.88907 17.9951 4.81652ZM16.3566 12.9648C16.3566 14.8351 14.8349 16.3568 12.965 16.3568H5.0355C3.16513 16.3568 1.64338 14.8351 1.64338 12.9648V5.03554C1.64338 3.16516 3.16513 1.64354 5.0355 1.64354H12.965C14.8349 1.64354 16.3566 3.16516 16.3566 5.03554V12.9648Z" fill="#4F5D75"/>
<path d="M9.00015 4.27618C6.39544 4.27618 4.276 6.39564 4.276 9.00038C4.276 11.6051 6.39544 13.7241 9.00015 13.7241C11.605 13.7241 13.724 11.6051 13.724 9.00038C13.724 6.39564 11.605 4.27618 9.00015 4.27618ZM9.00015 12.0806C7.30126 12.0806 5.91953 10.6988 5.91953 9.00038C5.91953 7.30146 7.30126 5.91973 9.00015 5.91973C10.6987 5.91973 12.0805 7.30146 12.0805 9.00038C12.0805 10.6988 10.6987 12.0806 9.00015 12.0806Z" fill="#4F5D75"/>
<path d="M14.9037 4.15327C14.9037 4.75326 14.4172 5.23976 13.8172 5.23976C13.2171 5.23976 12.7306 4.75326 12.7306 4.15327C12.7306 3.55312 13.2171 3.06677 13.8172 3.06677C14.4172 3.06677 14.9037 3.55312 14.9037 4.15327V4.15327Z" fill="#4F5D75"/>
</svg>
