<svg width="50" height="64" viewBox="0 0 50 64" fill="none" xmlns="http://www.w3.org/2000/svg">
<path fill-rule="evenodd" clip-rule="evenodd" d="M22.8518 0.143428C19.4628 0.71237 16.8905 2.02927 14.5412 4.39787C12.9346 6.01777 11.7798 7.86865 11.0997 9.91393C10.5574 11.5449 10.3582 12.7233 10.2721 14.8074L10.1938 16.7045L9.50493 17.0394C9.12498 17.2241 8.50285 17.6928 8.11748 18.0846C5.38801 20.86 6.17882 25.4322 9.68062 27.1223L10.5452 27.5395L10.9019 28.727C11.2907 30.021 11.7377 31.0368 12.3943 32.1176C12.8709 32.9023 12.8895 32.9667 12.6392 32.9667C12.282 32.9667 10.4 33.6217 9.42158 34.0865C7.7262 34.8921 6.21243 35.9744 4.80738 37.3859C2.48889 39.7148 1.11757 42.2354 0.345599 45.5866C0.10379 46.636 0.087907 47.1273 0.045184 54.8515L0 63.0082H25.0001H50L49.9993 55.3439C49.9985 47.0604 49.9607 46.4397 49.3233 44.2323C48.8895 42.7301 47.7157 40.3937 46.7564 39.1228C44.7127 36.4153 41.7066 34.2717 38.5741 33.2878C38.012 33.1111 37.4718 32.9667 37.3737 32.9667C37.1342 32.9667 37.1499 32.8511 37.4491 32.4127C38.1282 31.4169 38.985 29.4453 39.2836 28.1909C39.4348 27.5553 39.4567 27.5313 40.1945 27.1923C43.1558 25.8319 44.3704 22.4688 42.9559 19.5465C42.4854 18.5745 41.4624 17.5223 40.5071 17.0276L39.8174 16.6706L39.7429 14.815C39.6019 11.3008 38.932 9.09542 37.216 6.49573C35.559 3.98566 32.6886 1.77699 29.8082 0.795967C27.6906 0.0747251 24.8491 -0.19183 22.8518 0.143428ZM27.7767 4.02691C30.3897 4.70629 32.85 6.51358 34.3814 8.87886C35.1628 10.0856 35.841 12.0924 35.9981 13.6635C36.0541 14.2238 36.047 14.2394 35.7947 14.1066C34.3592 13.3499 32.0463 11.1673 30.7706 9.36592L29.9696 8.23469L29.0144 9.27838C27.1672 11.2966 24.2819 12.8106 20.4677 13.7627C18.3209 14.2986 14.2174 14.8314 13.9897 14.6038C13.8475 14.4616 14.2222 12.2536 14.5658 11.2089C15.7967 7.46666 19.092 4.59179 23 3.85109C24.2878 3.60707 26.4705 3.68734 27.7767 4.02691ZM29.9407 14.2051C30.3733 14.6719 32.2394 16.2369 32.8862 16.6754C33.6062 17.1635 34.6377 17.6821 35.4102 17.9444L36.0258 18.1534L36.0615 19.0821L36.0972 20.0108L37.2952 20.0588C38.2697 20.098 38.5771 20.1589 38.9436 20.3855C39.91 20.9827 40.1615 22.3996 39.451 23.244C38.9444 23.8462 38.5607 23.9789 37.327 23.9789C36.055 23.9789 36.1624 23.8625 36.0196 25.3948C35.4784 31.2017 30.7902 35.5424 25.0508 35.5507C19.1989 35.559 14.5343 31.226 13.9853 25.2717C13.858 23.8913 13.9489 23.9789 12.6427 23.9789C11.2834 23.9789 10.8359 23.7596 10.3788 22.8698C10.0534 22.236 10.0858 21.5969 10.4751 20.9681C10.8776 20.3183 11.3814 20.1149 12.7252 20.0597L13.9256 20.0103V19.2268C13.9256 18.3134 13.8231 18.3712 15.6493 18.2528C18.3828 18.0756 22.0232 17.3109 24.47 16.3999C25.7708 15.9157 28.24 14.7027 28.9463 14.2011C29.4934 13.8126 29.5772 13.8129 29.9407 14.2051ZM20.6357 47.8126C24.4955 54.0119 27.672 59.1358 27.6946 59.1992C27.7198 59.2701 25.0241 59.3146 20.7089 59.3146H13.6822L13.6499 54.4205L13.6178 49.5265L11.8018 49.4924L9.98572 49.4584V54.3864V59.3146H6.83887H3.69202L3.73512 53.1278L3.77833 46.9409L4.10054 45.7566C4.71516 43.4985 5.80527 41.5915 7.40978 39.9674C8.36619 38.9994 9.97255 37.8592 11.0479 37.385C11.6962 37.0991 13.2942 36.5504 13.4947 36.5447C13.5624 36.5429 16.7758 41.6134 20.6357 47.8126ZM38.4524 37.1741C41.4207 38.3065 44.1132 41.0221 45.3949 44.1764C46.2191 46.2049 46.2204 46.2185 46.2739 53.0662L46.3225 59.3146H43.1749H40.0272V54.3864V49.4584L38.2112 49.4924L36.3951 49.5265L36.363 54.4235L36.3307 59.3204L34.2181 59.2868L32.1055 59.253L29.4924 55.0444L26.8793 50.8356L29.3594 47.3485C30.7236 45.4305 32.9936 42.2386 34.4038 40.2555C36.6825 37.051 36.9976 36.6587 37.2356 36.7309C37.3828 36.7755 37.9303 36.9749 38.4524 37.1741ZM28.2321 42.5677C26.3565 45.2073 24.7941 47.3661 24.7602 47.3651C24.6758 47.3627 18.9493 38.121 19.0005 38.0698C19.023 38.0473 19.5941 38.2166 20.2695 38.4461C22.5947 39.2362 24.9684 39.4408 27.3424 39.0558C28.4924 38.8693 30.3731 38.3072 31.017 37.9575C31.1986 37.8589 31.4137 37.7761 31.4948 37.7733C31.5761 37.7706 30.1079 39.9281 28.2321 42.5677Z" fill="#8D8D8D"/>
</svg>
