<svg width="18" height="18" viewBox="0 0 18 18" fill="none" xmlns="http://www.w3.org/2000/svg">
<path d="M17.5974 4.32741L17.5921 4.30665C17.1579 2.60819 15.2001 0.785721 13.4023 0.406573L13.382 0.402519C10.474 -0.134173 7.52551 -0.134173 4.61818 0.402519L4.59729 0.406573C2.80004 0.785721 0.842248 2.60831 0.407443 4.30665L0.402618 4.32741C-0.134206 6.69929 -0.134206 9.10476 0.402618 11.4766L0.407443 11.4974C0.823774 13.1233 2.63568 14.8621 4.36646 15.3403V17.2362C4.36646 17.9225 5.2308 18.2595 5.7223 17.7643L7.70777 15.7675C8.13845 15.7908 8.56932 15.8038 9.00006 15.8038C10.4638 15.8038 11.9283 15.6699 13.3819 15.4016L13.4022 15.3975C15.2001 15.0184 17.1578 13.1958 17.592 11.4975L17.5974 11.4767C18.1342 9.10476 18.1342 6.69941 17.5974 4.32741ZM16.0261 11.1327C15.7362 12.2408 14.2498 13.6184 13.0687 13.8729C11.5226 14.1574 9.96407 14.2789 8.40718 14.2372C8.3762 14.2364 8.34643 14.2481 8.3249 14.2696C8.10392 14.4889 6.87524 15.7094 6.87524 15.7094L5.33333 17.2405C5.22058 17.3542 5.02251 17.2768 5.02251 17.1198V13.979C5.02251 13.9271 4.98423 13.8831 4.93153 13.873C3.75047 13.6185 2.26366 12.2408 1.97322 11.1327C1.49004 8.98874 1.49004 6.81531 1.97322 4.67137C2.26366 3.56328 3.74958 2.18574 4.93065 1.93121C7.63102 1.43432 10.369 1.43432 13.0688 1.93121C14.2504 2.18574 15.7363 3.56328 16.0262 4.67137C16.5099 6.81537 16.5099 8.9888 16.0261 11.1327Z" fill="#4F5D75"/>
<path d="M11.569 12.5826C11.3875 12.5292 11.2145 12.4934 11.0537 12.4289C9.3884 11.7605 7.85588 10.8982 6.642 9.57633C5.95167 8.82467 5.41135 7.97602 4.95465 7.07793C4.73804 6.65204 4.55552 6.20951 4.36945 5.76974C4.19982 5.36878 4.44969 4.95456 4.71277 4.65238C4.95966 4.3688 5.2774 4.15186 5.62149 3.99186C5.89003 3.86705 6.15488 3.93904 6.35105 4.15923C6.775 4.63536 7.16454 5.13582 7.4798 5.68774C7.67375 6.02721 7.62055 6.44217 7.26903 6.67317C7.18358 6.72931 7.10575 6.79527 7.02621 6.85866C6.95637 6.91425 6.89073 6.97038 6.84286 7.04562C6.75545 7.18327 6.75126 7.34572 6.8075 7.49541C7.24091 8.64772 7.97143 9.54384 9.17033 10.0265C9.36218 10.1037 9.55479 10.1936 9.77584 10.1687C10.146 10.1269 10.2658 9.73406 10.5252 9.52885C10.7787 9.32832 11.1027 9.32568 11.3758 9.49286C11.649 9.66017 11.9137 9.83964 12.1769 10.0211C12.4353 10.1993 12.6924 10.3734 12.9307 10.5765C13.1599 10.7718 13.2388 11.0279 13.1097 11.2928C12.8736 11.7781 12.5298 12.1817 12.034 12.4394C11.8941 12.512 11.7268 12.5355 11.569 12.5826C11.7268 12.5355 11.3875 12.5292 11.569 12.5826Z" fill="#4F5D75"/>
<path d="M9.00359 3.43705C11.1817 3.49614 12.9707 4.89462 13.3541 6.97801C13.4194 7.33302 13.4427 7.69589 13.4717 8.05624C13.484 8.20777 13.3952 8.35174 13.2263 8.35376C13.0517 8.35579 12.9731 8.2144 12.9617 8.063C12.9393 7.76314 12.9237 7.46188 12.881 7.1646C12.6556 5.59475 11.3618 4.29602 9.74673 4.01735C9.50365 3.9754 9.25505 3.96441 9.00879 3.93941C8.85319 3.92362 8.64941 3.91453 8.61493 3.72732C8.58605 3.57039 8.72292 3.44547 8.87738 3.43742C8.91921 3.43503 8.96143 3.43693 9.00359 3.43705C8.96143 3.43693 11.1818 3.49614 9.00359 3.43705Z" fill="#4F5D75"/>
<path d="M12.3138 7.58858C12.3102 7.61493 12.3084 7.67678 12.2924 7.73501C12.2346 7.94654 11.903 7.97301 11.8267 7.75957C11.804 7.69625 11.8007 7.62414 11.8006 7.55597C11.7998 7.10969 11.6996 6.66377 11.4669 6.27541C11.2277 5.87624 10.8623 5.54082 10.4339 5.3377C10.1747 5.21498 9.89456 5.13864 9.61053 5.09325C9.48642 5.07335 9.36097 5.06137 9.23623 5.04454C9.08507 5.02421 9.00432 4.93104 9.01156 4.78695C9.01822 4.65194 9.12024 4.55471 9.27235 4.56313C9.77216 4.59052 10.255 4.69518 10.6995 4.92281C11.6031 5.38586 12.1194 6.11664 12.2701 7.09255C12.2769 7.13683 12.2878 7.18056 12.2913 7.22491C12.2998 7.33436 12.3052 7.444 12.3138 7.58858C12.3052 7.444 12.3102 7.61481 12.3138 7.58858Z" fill="#4F5D75"/>
<path d="M10.9587 7.5376C10.7765 7.54079 10.679 7.44314 10.6601 7.2816C10.6471 7.16895 10.6367 7.05471 10.6089 6.94501C10.5542 6.729 10.4355 6.52889 10.2477 6.39653C10.1591 6.33406 10.0586 6.28855 9.95341 6.25907C9.81978 6.22166 9.68087 6.23198 9.54762 6.20041C9.40281 6.16608 9.32269 6.05257 9.34548 5.9212C9.36618 5.80155 9.48642 5.70819 9.62158 5.71771C10.4661 5.77667 11.0696 6.19906 11.1557 7.16091C11.1619 7.22878 11.169 7.30046 11.1535 7.3655C11.1267 7.47649 11.0416 7.5322 10.9587 7.5376C11.0416 7.5322 10.7764 7.54073 10.9587 7.5376Z" fill="#4F5D75"/>
</svg>
