<svg width="20" height="20" viewBox="0 0 20 20" fill="none" xmlns="http://www.w3.org/2000/svg">
<path d="M3.88192 0.774204C4.26733 0.807181 4.64179 1.00504 5.00928 1.3648C5.56499 1.90942 7.13653 3.90106 7.25803 4.48565C7.39247 5.13521 7.09769 5.65185 6.83576 6.10554C6.56787 6.57322 5.8538 7.45961 6.04004 7.97626C7.09669 10.5705 9.53764 12.8339 12.133 13.8972C12.6389 14.0811 13.5242 13.3666 13.9893 13.0967C14.4435 12.8349 14.9563 12.5351 15.6047 12.673C16.1873 12.7959 18.1731 14.4078 18.7169 14.9665C19.0734 15.3322 19.2716 15.7099 19.3025 16.0877C19.3562 17.5697 17.3425 19.2615 16.976 19.4724C16.489 19.8231 15.9224 20 15.286 20C14.6357 20 13.9106 19.8151 13.1199 19.4464C8.82956 17.6556 2.27553 11.231 0.542661 6.97395C-0.17638 5.38903 -0.18136 4.08193 0.53071 3.09961C0.814542 2.63892 2.43288 0.713245 3.88192 0.774204ZM12.3091 3.47649L12.4181 3.48994C14.5025 3.89666 16.1109 5.51055 16.5182 7.60012C16.6088 8.0658 16.3041 8.51849 15.841 8.61142C15.7852 8.62142 15.7305 8.62641 15.6757 8.62641C15.2674 8.62641 14.9128 8.33361 14.8351 7.93089C14.5623 6.53085 13.4857 5.45159 12.0914 5.17978C11.6283 5.08884 11.3236 4.63515 11.4142 4.17047C11.5048 3.70579 11.942 3.402 12.4181 3.48994L12.3091 3.47649ZM12.2444 2.39841e-08L12.3558 0.00792976C16.4002 0.45862 19.5403 3.60746 19.9944 7.66467C20.0203 7.89351 19.9556 8.11736 19.8132 8.29724C19.6698 8.47711 19.4666 8.59004 19.2385 8.61502C19.2057 8.61902 19.1738 8.62101 19.1409 8.62101C18.7047 8.62101 18.3392 8.29224 18.2904 7.85654C17.9259 4.60477 15.4063 2.07951 12.1646 1.71776C11.6946 1.66479 11.355 1.23908 11.4077 0.768408C11.4326 0.535567 11.5472 0.32771 11.7304 0.183809C11.9087 0.0419064 12.1328 -0.0240483 12.3558 0.00792976L12.2444 2.39841e-08Z" fill="#F6F6F6"/>
</svg>
