<svg width="35" height="36" viewBox="0 0 35 36" fill="none" xmlns="http://www.w3.org/2000/svg">
<ellipse cx="17.5" cy="18.0001" rx="17.5" ry="18" fill="#F6F6F6"/>
<path d="M26.1086 13.4688L26.1034 13.4474C25.6812 11.6935 23.7779 9.81145 22.0299 9.41992L22.0103 9.41573C19.1831 8.8615 16.3164 8.8615 13.4899 9.41573L13.4696 9.41992C11.7222 9.81145 9.81882 11.6936 9.39609 13.4474L9.3914 13.4688C8.86949 15.9182 8.86949 18.4023 9.3914 20.8516L9.39609 20.8731C9.80086 22.5521 11.5624 24.3477 13.2451 24.8415V26.7994C13.2451 27.5081 14.0855 27.8561 14.5633 27.3447L16.4936 25.2827C16.9124 25.3068 17.3313 25.3202 17.75 25.3202C19.1731 25.3202 20.5969 25.1819 22.0102 24.9048L22.0299 24.9006C23.7778 24.5091 25.6812 22.627 26.1033 20.8731L26.1085 20.8517C26.6304 18.4023 26.6304 15.9183 26.1086 13.4688ZM24.5809 20.4965C24.2991 21.6408 22.8539 23.0633 21.7057 23.3262C20.2024 23.62 18.6873 23.7455 17.1736 23.7024C17.1435 23.7015 17.1145 23.7136 17.0936 23.7358C16.8788 23.9624 15.6842 25.2227 15.6842 25.2227L14.1851 26.8038C14.0755 26.9212 13.883 26.8412 13.883 26.6792V23.4358C13.883 23.3822 13.8457 23.3367 13.7945 23.3263C12.6463 23.0635 11.2008 21.6407 10.9184 20.4964C10.4486 18.2825 10.4486 16.038 10.9184 13.824C11.2008 12.6798 12.6454 11.2572 13.7937 10.9944C16.419 10.4812 19.0809 10.4812 21.7057 10.9944C22.8545 11.2572 24.2991 12.6798 24.581 13.824C25.0512 16.0381 25.0512 18.2825 24.5809 20.4965Z" fill="#4F5D75"/>
<path d="M20.2476 21.9937C20.0711 21.9386 19.9029 21.9016 19.7466 21.8351C18.1276 21.1448 16.6376 20.2543 15.4575 18.8892C14.7863 18.113 14.261 17.2367 13.817 16.3092C13.6064 15.8694 13.4289 15.4124 13.248 14.9583C13.0831 14.5442 13.326 14.1165 13.5818 13.8044C13.8219 13.5116 14.1308 13.2876 14.4653 13.1223C14.7264 12.9934 14.9839 13.0678 15.1746 13.2952C15.5868 13.7869 15.9655 14.3037 16.272 14.8736C16.4605 15.2242 16.4088 15.6527 16.0671 15.8912C15.984 15.9492 15.9083 16.0173 15.831 16.0828C15.7631 16.1402 15.6993 16.1982 15.6527 16.2759C15.5678 16.418 15.5637 16.5858 15.6184 16.7403C16.0397 17.9303 16.75 18.8557 17.9156 19.3542C18.1021 19.4339 18.2893 19.5267 18.5043 19.501C18.8641 19.4578 18.9806 19.0521 19.2328 18.8402C19.4793 18.6331 19.7943 18.6304 20.0597 18.8031C20.3253 18.9758 20.5827 19.1612 20.8386 19.3486C21.0898 19.5325 21.3398 19.7123 21.5715 19.9221C21.7943 20.1237 21.871 20.3882 21.7455 20.6618C21.5159 21.1629 21.1817 21.5797 20.6997 21.8458C20.5636 21.9208 20.4011 21.9451 20.2476 21.9937C20.0711 21.9386 20.4011 21.9451 20.2476 21.9937Z" fill="#4F5D75"/>
<path d="M17.7535 12.5494C19.871 12.6104 21.6104 14.0546 21.9831 16.206C22.0466 16.5726 22.0692 16.9474 22.0975 17.3195C22.1094 17.476 22.0231 17.6246 21.8588 17.6267C21.6891 17.6288 21.6127 17.4828 21.6016 17.3265C21.5798 17.0168 21.5647 16.7057 21.5232 16.3987C21.304 14.7776 20.0461 13.4364 18.476 13.1486C18.2396 13.1053 17.9979 13.094 17.7585 13.0682C17.6072 13.0519 17.4091 13.0425 17.3756 12.8491C17.3475 12.6871 17.4806 12.5581 17.6308 12.5498C17.6714 12.5473 17.7125 12.5493 17.7535 12.5494C19.8712 12.6104 17.7125 12.5493 17.7535 12.5494Z" fill="#4F5D75"/>
<path d="M20.9717 16.8365C20.9682 16.8638 20.9664 16.9276 20.9509 16.9878C20.8947 17.2062 20.5723 17.2335 20.4982 17.0131C20.4761 16.9477 20.4729 16.8733 20.4727 16.8029C20.472 16.342 20.3745 15.8815 20.1483 15.4805C19.9158 15.0683 19.5606 14.7219 19.144 14.5121C18.8921 14.3854 18.6197 14.3066 18.3435 14.2597C18.2229 14.2391 18.1009 14.2268 17.9796 14.2094C17.8327 14.1884 17.7542 14.0922 17.7612 13.9434C17.7677 13.804 17.8669 13.7036 18.0148 13.7123C18.5007 13.7405 18.9701 13.8486 19.4022 14.0837C20.2808 14.5619 20.7827 15.3165 20.9292 16.3243C20.9358 16.37 20.9464 16.4152 20.9498 16.461C20.9581 16.574 20.9634 16.6872 20.9717 16.8365C20.9682 16.8636 20.9634 16.6872 20.9717 16.8365Z" fill="#4F5D75"/>
<path d="M19.6543 16.7839C19.4771 16.7872 19.3823 16.6864 19.364 16.5195C19.3513 16.4032 19.3412 16.2852 19.3142 16.172C19.261 15.9489 19.1456 15.7422 18.963 15.6056C18.8769 15.5411 18.7792 15.4941 18.6769 15.4636C18.547 15.425 18.4119 15.4356 18.2824 15.403C18.1416 15.3676 18.0637 15.2504 18.0859 15.1147C18.106 14.9911 18.2229 14.8947 18.3543 14.9046C19.1753 14.9655 19.7621 15.4016 19.8458 16.3949C19.8518 16.465 19.8587 16.539 19.8436 16.6062C19.8176 16.7208 19.7349 16.7783 19.6543 16.7839C19.4771 16.7871 19.7349 16.7783 19.6543 16.7839Z" fill="#4F5D75"/>
</svg>
