<svg width="50" height="51" viewBox="0 0 50 51" fill="none" xmlns="http://www.w3.org/2000/svg">
<path fill-rule="evenodd" clip-rule="evenodd" d="M22.6792 0.0575464C15.1732 0.78739 8.47275 4.75602 4.26006 10.9671C2.10155 14.1497 0.793752 17.5473 0.173024 21.585C0.0444351 22.4215 0 23.3007 0 25.0101C0 26.7195 0.0444351 27.5987 0.173024 28.4352C1.04251 34.0914 3.40447 38.8314 7.28943 42.7163C11.1743 46.6012 15.9143 48.9632 21.5705 49.8327C23.147 50.0751 26.8442 50.0751 28.4207 49.8327C34.077 48.9632 38.8169 46.6012 42.7018 42.7163C46.5868 38.8314 48.9487 34.0914 49.8182 28.4352C50.0606 26.8587 50.0606 23.1615 49.8182 21.585C48.9487 15.9287 46.5868 11.1888 42.7018 7.30392C38.8432 3.44518 34.0467 1.04467 28.5186 0.205317C27.2958 0.0196753 23.9418 -0.0651706 22.6792 0.0575464ZM27.4447 4.26829C31.1733 4.72921 34.69 6.17118 37.7471 8.49282C38.7775 9.27522 40.7305 11.2282 41.5129 12.2586C43.8345 15.3158 45.2765 18.8324 45.7374 22.561C45.8693 23.6286 45.8693 26.3916 45.7374 27.4592C45.2765 31.1878 43.8345 34.7044 41.5129 37.7616C40.7305 38.792 38.7775 40.745 37.7471 41.5274C34.69 43.849 31.1733 45.291 27.4447 45.7519C26.9886 45.8083 25.8865 45.8544 24.9956 45.8544C22.4822 45.8544 20.7191 45.5757 18.439 44.818C15.3008 43.7752 12.6567 42.1329 10.2647 39.741C7.87277 37.349 6.23048 34.7049 5.18768 31.5667C4.43004 29.2866 4.15134 27.5235 4.15134 25.0101C4.15134 24.1192 4.19743 23.0171 4.2538 22.561C4.71472 18.8324 6.15669 15.3158 8.47833 12.2586C9.26073 11.2282 11.2137 9.27522 12.2441 8.49282C15.246 6.21326 18.7965 4.74115 22.4118 4.27729C23.379 4.1532 26.4686 4.14762 27.4447 4.26829ZM24.3849 13.5966C23.6232 13.8793 23.1423 14.3757 22.9507 15.0773C22.8809 15.3326 22.8436 16.9666 22.8433 19.775L22.8427 24.0811L17.8998 29.0228C12.5064 34.4148 12.5999 34.3017 12.6849 35.326C12.7691 36.3411 13.5668 37.1387 14.5819 37.223C15.6818 37.3142 15.503 37.4619 21.3573 31.6283C24.3546 28.6415 26.7661 26.1604 26.8864 25.9398C27.0962 25.5546 27.1001 25.4695 27.1308 20.6064C27.1519 17.2726 27.127 15.5034 27.0546 15.1695C26.7994 13.993 25.4536 13.2001 24.3849 13.5966Z" fill="#8D8D8D"/>
</svg>
