<svg width="419" height="419" viewBox="0 0 419 419" fill="none" xmlns="http://www.w3.org/2000/svg">
<path d="M79.8719 79.8719C84.7828 74.9625 91.4424 72.2046 98.3864 72.2046C105.33 72.2046 111.99 74.9625 116.901 79.8719L209.5 172.471L302.099 79.8719C307.038 75.1017 313.653 72.4621 320.519 72.5218C327.386 72.5814 333.954 75.3356 338.809 80.1909C343.665 85.0463 346.419 91.6145 346.478 98.4807C346.538 105.347 343.898 111.962 339.128 116.901L246.529 209.5L339.128 302.099C343.898 307.038 346.538 313.653 346.478 320.519C346.419 327.386 343.665 333.954 338.809 338.809C333.954 343.665 327.386 346.419 320.519 346.478C313.653 346.538 307.038 343.898 302.099 339.128L209.5 246.529L116.901 339.128C111.962 343.898 105.347 346.538 98.4807 346.478C91.6144 346.419 85.0463 343.665 80.1909 338.809C75.3355 333.954 72.5814 327.386 72.5217 320.519C72.4621 313.653 75.1016 307.038 79.8719 302.099L172.471 209.5L79.8719 116.901C74.9625 111.99 72.2045 105.33 72.2045 98.3865C72.2045 91.4425 74.9625 84.7828 79.8719 79.8719V79.8719Z" fill="black"/>
</svg>
