<svg width="11" height="20" viewBox="0 0 11 20" fill="none" xmlns="http://www.w3.org/2000/svg">
<path d="M7.74999 0.875122C6.52336 0.875122 5.34697 1.3624 4.47962 2.22975C3.61226 3.09711 3.12499 4.2735 3.12499 5.50012V8.07512H0.649988C0.525988 8.07512 0.424988 8.17512 0.424988 8.30012V11.7001C0.424988 11.8241 0.524988 11.9251 0.649988 11.9251H3.12499V18.9001C3.12499 19.0241 3.22499 19.1251 3.34999 19.1251H6.74999C6.87399 19.1251 6.97499 19.0251 6.97499 18.9001V11.9251H9.47199C9.57499 11.9251 9.66499 11.8551 9.68999 11.7551L10.54 8.35512C10.5484 8.32194 10.549 8.2873 10.542 8.25381C10.535 8.22033 10.5204 8.1889 10.4993 8.1619C10.4783 8.1349 10.4514 8.11305 10.4207 8.09801C10.39 8.08298 10.3562 8.07515 10.322 8.07512H6.97499V5.50012C6.97499 5.39835 6.99503 5.29757 7.03398 5.20354C7.07293 5.10951 7.13001 5.02408 7.20198 4.95211C7.27395 4.88015 7.35938 4.82306 7.45341 4.78412C7.54744 4.74517 7.64821 4.72512 7.74999 4.72512H10.35C10.474 4.72512 10.575 4.62512 10.575 4.50012V1.10012C10.575 0.976122 10.475 0.875122 10.35 0.875122H7.74999Z" fill="#4F5D75"/>
</svg>
