<svg width="50" height="59" viewBox="0 0 50 59" fill="none" xmlns="http://www.w3.org/2000/svg">
<path fill-rule="evenodd" clip-rule="evenodd" d="M23.7079 0.249207C22.9655 0.561359 22.6336 0.797423 21.5584 1.77806C17.5763 5.40993 12.852 7.33403 6.52459 7.90106C5.60615 7.98335 4.81234 8.12668 4.31818 8.29917C2.32063 8.99681 0.821387 10.6528 0.267317 12.7735C0.124554 13.3198 0.073255 14.4343 0.0189727 18.1673C-0.0711153 24.3643 0.152553 28.225 0.841813 32.3711C2.3577 41.4901 6.55351 48.4526 13.5251 53.4175C16.9104 55.8284 23.1839 58.7356 25.0012 58.7356C26.0368 58.7356 28.7849 57.6967 31.8296 56.1539C35.0279 54.5335 37.239 53.0302 39.6545 50.8343C43.6581 47.1944 46.6701 42.1643 48.2312 36.5113C49.6138 31.5048 50.1041 26.3347 49.982 18.0525C49.9285 14.4292 49.8764 13.317 49.7348 12.7735C49.1749 10.6255 47.6474 8.9602 45.5985 8.26417C45.2083 8.13151 44.284 7.97348 43.4754 7.90095C36.9928 7.31968 32.7183 5.54833 28.2122 1.57597C26.9389 0.453483 26.1587 0.0582432 25.116 0.00728892C24.5276 -0.0214015 24.2301 0.0296677 23.7079 0.249207ZM26.2193 4.40461C30.8752 8.54189 35.8669 10.629 42.6663 11.281C44.084 11.4169 44.5414 11.505 44.9615 11.7232C45.5662 12.0372 46.1697 12.7608 46.3423 13.3789C46.5338 14.0642 46.6268 22.4088 46.4725 25.053C46.0677 31.9915 45.0241 36.586 42.8753 40.8901C40.719 45.209 37.5549 48.6578 33.1608 51.4786C31.5369 52.521 28.4392 54.0523 26.4644 54.7885L25.0012 55.3341L23.538 54.7888C21.4702 54.0183 18.1926 52.3795 16.5226 51.2811C9.48659 46.6534 5.5747 40.2946 4.12882 31.1354C3.57418 27.6223 3.48271 25.9855 3.49384 19.774C3.5013 15.6378 3.54434 13.7795 3.64051 13.4382C3.82941 12.7677 4.41836 12.0464 5.04095 11.7232C5.46109 11.505 5.91842 11.4169 7.33618 11.281C14.1375 10.6287 19.1422 8.53455 23.8081 4.38832C24.4071 3.85594 24.9456 3.42042 25.0046 3.42042C25.0636 3.42042 25.6102 3.86328 26.2193 4.40461ZM23.8536 14.7885C19.3296 15.1525 15.3487 17.4978 12.8 21.3008C9.60284 26.0714 9.59676 32.5516 12.7851 37.3862C15.5139 41.524 20.0287 43.9498 25.0012 43.9498C30.6041 43.9498 35.581 40.8706 38.1141 35.837C39.7764 32.5339 40.0641 28.3112 38.871 24.7292C36.7571 18.3823 30.5181 14.2524 23.8536 14.7885ZM26.8887 18.3506C28.9803 18.6463 31.0644 19.7123 32.7736 21.3603C34.9988 23.5061 36.1474 26.2283 36.1474 29.3566C36.1474 32.4942 35.0055 35.2006 32.7736 37.3528C30.562 39.4853 28.0542 40.5012 25.0012 40.5012C21.9482 40.5012 19.4405 39.4853 17.2289 37.3528C14.9904 35.1943 13.8566 32.5058 13.8566 29.3566C13.8566 26.2166 14.997 23.5126 17.2289 21.3603C19.8901 18.7943 23.0544 17.8083 26.8887 18.3506ZM29.7638 24.4723C29.5745 24.5583 27.8706 26.1831 25.9774 28.0828C24.0843 29.9826 22.4863 31.5371 22.4267 31.5371C22.3669 31.5371 21.8232 31.051 21.2187 30.4569C19.9557 29.2162 19.6197 29.0745 18.7387 29.411C17.8101 29.7656 17.3685 30.8862 17.8196 31.7436C17.9092 31.914 18.8 32.8624 19.7992 33.8512C21.2924 35.329 21.6908 35.663 22.0372 35.7272C22.9726 35.9008 22.9411 35.9259 27.5053 31.3822C29.8611 29.0373 31.8622 26.9793 31.9524 26.8089C32.0427 26.6383 32.1165 26.2717 32.1165 25.9938C32.1165 24.7904 30.8572 23.976 29.7638 24.4723Z" fill="#8D8D8D"/>
</svg>
