<svg width="35" height="36" viewBox="0 0 35 36" fill="none" xmlns="http://www.w3.org/2000/svg">
<path d="M29.8725 5.27015C23.0373 -1.75821 11.9569 -1.75652 5.12376 5.27402C-1.70937 12.3046 -1.70773 23.7015 5.12752 30.7298C11.9628 37.7582 23.0431 37.7565 29.8763 30.726C33.1579 27.3495 35.001 22.7704 35 17.9961C34.999 13.2226 33.1546 8.64501 29.8725 5.27015ZM26.5031 25.0738L26.5008 25.0762V25.0702L25.6141 25.9762C24.4674 27.1706 22.7973 27.662 21.2099 27.2722C19.6107 26.8319 18.0904 26.131 16.7066 25.1962C15.4211 24.3511 14.2297 23.3632 13.1541 22.2502C12.1645 21.2397 11.2754 20.1302 10.5 18.9382C9.65175 17.6555 8.98039 16.2583 8.50495 14.7862C7.95992 13.0568 8.41157 11.1591 9.67164 9.88419L10.71 8.81622C10.9986 8.51795 11.4677 8.5169 11.7576 8.81383L11.7599 8.81622L15.0383 12.1882C15.3282 12.4851 15.3293 12.9676 15.0406 13.2658L15.0383 13.2682L13.1133 15.2482C12.5609 15.8101 12.4915 16.7031 12.9499 17.3482C13.6462 18.331 14.4167 19.2558 15.2541 20.1142C16.1879 21.0788 17.2029 21.9562 18.2874 22.7362C18.9141 23.1858 19.7637 23.11 20.3058 22.5562L22.1666 20.6122C22.4552 20.314 22.9243 20.3129 23.2142 20.6099L23.2166 20.6122L26.5007 23.9962C26.7908 24.2931 26.7918 24.7755 26.5031 25.0738Z" fill="#F6F6F6"/>
</svg>
