<?xml version="1.0" encoding="utf-8"?><svg viewBox="0 0 50 51" xmlns="http://www.w3.org/2000/svg" xmlns:xlink="http://www.w3.org/1999/xlink"><style>:root>svg{display:none}:root>svg:target{display:block}</style><svg viewBox="0 0 27 24" id="arrow-slider" xmlns="http://www.w3.org/2000/svg"><path d="M.94 10.94a1.5 1.5 0 000 2.12l9.545 9.547a1.5 1.5 0 102.122-2.122L4.12 12l8.486-8.485a1.5 1.5 0 10-2.122-2.122L.94 10.94zM27 10.5H2v3h25v-3z"/></svg><svg fill="none" viewBox="0 0 50 51" id="clock" xmlns="http://www.w3.org/2000/svg"><path fill-rule="evenodd" clip-rule="evenodd" d="M22.68.058c-7.507.73-14.207 4.698-18.42 10.91C2.102 14.15.794 17.547.173 21.584.044 22.422 0 23.301 0 25.01c0 1.71.044 2.589.173 3.425.87 5.656 3.231 10.396 7.116 14.281s8.625 6.247 14.282 7.117c1.576.242 5.273.242 6.85 0 5.656-.87 10.396-3.232 14.28-7.117 3.886-3.885 6.248-8.625 7.117-14.28.243-1.577.243-5.274 0-6.851-.87-5.656-3.231-10.396-7.116-14.281-3.859-3.859-8.655-6.26-14.183-7.099-1.223-.185-4.577-.27-5.84-.147zm4.765 4.21c3.728.461 7.245 1.903 10.302 4.225 1.03.782 2.983 2.735 3.766 3.766 2.322 3.057 3.764 6.573 4.224 10.302.132 1.068.132 3.83 0 4.898-.46 3.729-1.903 7.245-4.224 10.303-.782 1.03-2.735 2.983-3.766 3.765-3.057 2.322-6.574 3.764-10.302 4.225-.456.056-1.558.102-2.45.102-2.513 0-4.276-.278-6.556-1.036-3.138-1.043-5.782-2.685-8.174-5.077-2.392-2.392-4.035-5.036-5.077-8.174-.758-2.28-1.037-4.044-1.037-6.557 0-.89.046-1.993.103-2.449.46-3.729 1.903-7.245 4.224-10.302.783-1.03 2.736-2.984 3.766-3.766 3.002-2.28 6.553-3.752 10.168-4.216.967-.124 4.057-.13 5.033-.009zm-3.06 9.329c-.762.282-1.243.779-1.434 1.48-.07.256-.107 1.89-.108 4.698v4.306L17.9 29.023c-5.394 5.392-5.3 5.279-5.215 6.303a2.07 2.07 0 001.897 1.897c1.1.091.921.239 6.775-5.595 2.998-2.986 5.41-5.468 5.53-5.688.21-.385.213-.47.244-5.334.02-3.333-.004-5.103-.076-5.437-.256-1.176-1.601-1.969-2.67-1.572z" fill="#8D8D8D"/></svg><svg fill="none" viewBox="0 0 20 20" id="facebook" xmlns="http://www.w3.org/2000/svg"><path d="M10 0C4.477 0 0 4.477 0 10s4.477 10 10 10 10-4.477 10-10S15.523 0 10 0zm2.369 6.91h-1.503c-.178 0-.376.235-.376.546v1.086h1.88l-.285 1.548H10.49v4.646H8.716V10.09h-1.61V8.542h1.61v-.91c0-1.307.906-2.368 2.15-2.368h1.503V6.91z" fill="#F6F6F6"/></svg><svg fill="none" viewBox="0 0 20 20" id="instagram" xmlns="http://www.w3.org/2000/svg"><path d="M13.125 10a3.125 3.125 0 11-6.25 0c0-.178.019-.352.051-.52H5.833v4.163c0 .29.235.524.524.524h7.287a.524.524 0 00.523-.524V9.479h-1.093c.032.169.051.343.051.521zM10 12.083a2.082 2.082 0 001.925-2.881A2.083 2.083 0 1010 12.083zm2.5-4.27h1.249a.314.314 0 00.313-.313V6.251a.314.314 0 00-.313-.314H12.5a.313.313 0 00-.313.314V7.5a.315.315 0 00.313.313zM10 0a10 10 0 100 20 10 10 0 000-20zm5.208 14.051a1.16 1.16 0 01-1.157 1.157H5.949a1.16 1.16 0 01-1.157-1.157V5.949c0-.636.52-1.157 1.157-1.157h8.102c.636 0 1.157.52 1.157 1.157v8.102z" fill="#F6F6F6"/></svg><svg fill="none" viewBox="0 0 20 20" id="phone" xmlns="http://www.w3.org/2000/svg"><path d="M3.882.774c.385.033.76.231 1.127.59.556.545 2.128 2.537 2.249 3.122.134.65-.16 1.166-.422 1.62-.268.467-.982 1.354-.796 1.87 1.057 2.594 3.498 4.858 6.093 5.921.506.184 1.391-.53 1.856-.8.454-.262.967-.562 1.616-.424.582.123 2.568 1.735 3.112 2.293.356.366.555.744.585 1.122.054 1.482-1.96 3.174-2.326 3.384a2.825 2.825 0 01-1.69.528c-.65 0-1.375-.185-2.166-.554C8.83 17.656 2.276 11.231.543 6.974-.177 5.389-.181 4.082.53 3.1.815 2.639 2.433.713 3.88.774zm8.427 2.702l.11.014a5.174 5.174 0 014.1 4.11.865.865 0 01-.843 1.026.86.86 0 01-.84-.695A3.462 3.462 0 0012.09 5.18a.862.862 0 01-.677-1.01.854.854 0 011.004-.68l-.109-.014zM12.244 0l.112.008c4.044.45 7.184 3.6 7.638 7.657a.856.856 0 11-1.704.192 6.912 6.912 0 00-6.125-6.14.86.86 0 01-.757-.949.853.853 0 01.322-.584.817.817 0 01.626-.176L12.244 0z" fill="#F6F6F6"/></svg></svg>