<?xml version="1.0" encoding="utf-8"?><svg viewBox="0 0 419 419" xmlns="http://www.w3.org/2000/svg" xmlns:xlink="http://www.w3.org/1999/xlink"><style>:root>svg{display:none}:root>svg:target{display:block}</style><svg viewBox="0 0 15 22" id="arrow-slider" xmlns="http://www.w3.org/2000/svg"><path fill="#F6F6F6" d="M10.818 0L.21 10.607l3.536 3.535L14.353 3.536z"/><path fill="#F6F6F6" d="M14.028 17.763L3.536 7.27 0 10.806l10.492 10.492z"/></svg><svg fill="none" viewBox="0 0 50 51" id="clock" xmlns="http://www.w3.org/2000/svg"><path fill-rule="evenodd" clip-rule="evenodd" d="M22.68.058c-7.507.73-14.207 4.698-18.42 10.91C2.102 14.15.794 17.547.173 21.584.044 22.422 0 23.301 0 25.01c0 1.71.044 2.589.173 3.425.87 5.656 3.231 10.396 7.116 14.281s8.625 6.247 14.282 7.117c1.576.242 5.273.242 6.85 0 5.656-.87 10.396-3.232 14.28-7.117 3.886-3.885 6.248-8.625 7.117-14.28.243-1.577.243-5.274 0-6.851-.87-5.656-3.231-10.396-7.116-14.281-3.859-3.859-8.655-6.26-14.183-7.099-1.223-.185-4.577-.27-5.84-.147zm4.765 4.21c3.728.461 7.245 1.903 10.302 4.225 1.03.782 2.983 2.735 3.766 3.766 2.322 3.057 3.764 6.573 4.224 10.302.132 1.068.132 3.83 0 4.898-.46 3.729-1.903 7.245-4.224 10.303-.782 1.03-2.735 2.983-3.766 3.765-3.057 2.322-6.574 3.764-10.302 4.225-.456.056-1.558.102-2.45.102-2.513 0-4.276-.278-6.556-1.036-3.138-1.043-5.782-2.685-8.174-5.077-2.392-2.392-4.035-5.036-5.077-8.174-.758-2.28-1.037-4.044-1.037-6.557 0-.89.046-1.993.103-2.449.46-3.729 1.903-7.245 4.224-10.302.783-1.03 2.736-2.984 3.766-3.766 3.002-2.28 6.553-3.752 10.168-4.216.967-.124 4.057-.13 5.033-.009zm-3.06 9.329c-.762.282-1.243.779-1.434 1.48-.07.256-.107 1.89-.108 4.698v4.306L17.9 29.023c-5.394 5.392-5.3 5.279-5.215 6.303a2.07 2.07 0 001.897 1.897c1.1.091.921.239 6.775-5.595 2.998-2.986 5.41-5.468 5.53-5.688.21-.385.213-.47.244-5.334.02-3.333-.004-5.103-.076-5.437-.256-1.176-1.601-1.969-2.67-1.572z" fill="#8D8D8D"/></svg><svg fill="none" viewBox="0 0 419 419" id="close" xmlns="http://www.w3.org/2000/svg"><path d="M79.872 79.872a26.187 26.187 0 0137.029 0L209.5 172.47l92.599-92.6a26.187 26.187 0 0137.029 37.03L246.529 209.5l92.599 92.599a26.187 26.187 0 01-37.029 37.029L209.5 246.529l-92.599 92.599a26.187 26.187 0 01-37.03-37.029l92.6-92.599-92.6-92.599a26.188 26.188 0 010-37.03z" fill="#000"/></svg><svg fill="none" viewBox="0 0 11 20" id="facebook" xmlns="http://www.w3.org/2000/svg"><path d="M7.75.875A4.625 4.625 0 003.125 5.5v2.575H.65c-.124 0-.225.1-.225.225v3.4c0 .124.1.225.225.225h2.475V18.9c0 .124.1.225.225.225h3.4c.124 0 .225-.1.225-.225v-6.975h2.497c.103 0 .193-.07.218-.17l.85-3.4a.225.225 0 00-.218-.28H6.975V5.5a.775.775 0 01.775-.775h2.6c.124 0 .225-.1.225-.225V1.1c0-.124-.1-.225-.225-.225h-2.6z" fill="#4F5D75"/></svg><svg fill="none" viewBox="0 0 50 59" id="garanty" xmlns="http://www.w3.org/2000/svg"><path fill-rule="evenodd" clip-rule="evenodd" d="M23.708.25c-.742.311-1.074.547-2.15 1.528-3.982 3.632-8.706 5.556-15.033 6.123-.919.082-1.713.226-2.207.398-1.997.698-3.497 2.354-4.05 4.475-.143.546-.195 1.66-.249 5.393-.09 6.197.134 10.058.823 14.204 1.516 9.12 5.712 16.082 12.683 21.046 3.385 2.411 9.659 5.319 11.476 5.319 1.036 0 3.784-1.04 6.829-2.582 3.198-1.62 5.409-3.124 7.825-5.32 4.003-3.64 7.015-8.67 8.576-14.323 1.383-5.006 1.873-10.176 1.751-18.459-.053-3.623-.106-4.735-.247-5.278-.56-2.148-2.088-3.814-4.136-4.51-.39-.132-1.315-.29-2.124-.363-6.482-.581-10.757-2.353-15.263-6.325C26.94.453 26.16.058 25.116.007c-.588-.028-.886.023-1.408.242zm2.511 4.155c4.656 4.137 9.648 6.224 16.447 6.876 1.418.136 1.875.224 2.296.442.604.314 1.208 1.038 1.38 1.656.192.685.285 9.03.13 11.674-.404 6.938-1.448 11.533-3.597 15.837-2.156 4.319-5.32 7.768-9.714 10.589-1.624 1.042-4.722 2.573-6.697 3.31l-1.463.545-1.463-.545c-2.068-.77-5.345-2.41-7.015-3.508C9.487 46.653 5.575 40.295 4.129 31.135c-.555-3.513-.646-5.15-.635-11.361.007-4.136.05-5.995.147-6.336.188-.67.777-1.392 1.4-1.715.42-.218.877-.306 2.295-.442 6.801-.652 11.806-2.746 16.472-6.893.6-.532 1.138-.968 1.197-.968.059 0 .605.443 1.214.985zm-2.365 10.384c-4.524.364-8.505 2.709-11.054 6.512-3.197 4.77-3.203 11.25-.015 16.085 2.729 4.138 7.244 6.564 12.216 6.564 5.603 0 10.58-3.08 13.113-8.113 1.662-3.303 1.95-7.526.757-11.108-2.114-6.347-8.353-10.477-15.017-9.94zm3.035 3.562c2.091.295 4.175 1.361 5.885 3.01 2.225 2.145 3.373 4.867 3.373 7.996 0 3.137-1.142 5.844-3.373 7.996C30.562 39.485 28.054 40.5 25 40.5s-5.56-1.016-7.772-3.148c-2.239-2.159-3.372-4.847-3.372-7.996 0-3.14 1.14-5.844 3.372-7.997 2.661-2.566 5.825-3.552 9.66-3.01zm2.875 6.121c-.19.086-1.893 1.711-3.787 3.61-1.893 1.9-3.49 3.455-3.55 3.455-.06 0-.604-.486-1.208-1.08-1.263-1.24-1.6-1.383-2.48-1.046-.929.355-1.37 1.475-.92 2.333.09.17.981 1.118 1.98 2.107 1.493 1.478 1.892 1.812 2.238 1.876.936.174.904.199 5.468-4.345 2.356-2.345 4.357-4.403 4.447-4.573.09-.17.165-.537.165-.815 0-1.204-1.26-2.018-2.353-1.522z" fill="#8D8D8D"/></svg><svg fill="none" viewBox="0 0 18 18" id="instagram" xmlns="http://www.w3.org/2000/svg"><path d="M17.995 4.817A5.041 5.041 0 0012.965 0h-7.93A5.041 5.041 0 000 5.036v7.929c0 .352.037.696.106 1.028.315 1.507 1.951 3.344 3.51 3.804.45.132.927.203 1.42.203h7.929c.492 0 .969-.07 1.419-.203 1.559-.46 3.196-2.297 3.51-3.803.07-.332.106-.676.106-1.03V5.037c0-.074-.002-.147-.005-.22zm-1.638 8.148a3.396 3.396 0 01-3.392 3.392h-7.93a3.396 3.396 0 01-3.392-3.392v-7.93a3.396 3.396 0 013.393-3.391h7.929a3.396 3.396 0 013.392 3.392v7.929z" fill="#4F5D75"/><path d="M9 4.276A4.73 4.73 0 004.276 9 4.73 4.73 0 009 13.724 4.729 4.729 0 0013.724 9 4.73 4.73 0 009 4.276zm0 7.805A3.084 3.084 0 015.92 9 3.084 3.084 0 019 5.92 3.084 3.084 0 0112.08 9 3.084 3.084 0 019 12.08zM14.904 4.153a1.087 1.087 0 11-2.173 0 1.087 1.087 0 012.173 0z" fill="#4F5D75"/></svg><svg fill="none" viewBox="0 0 50 64" id="man" xmlns="http://www.w3.org/2000/svg"><path fill-rule="evenodd" clip-rule="evenodd" d="M22.852.143c-3.39.57-5.962 1.886-8.31 4.255-1.607 1.62-2.762 3.47-3.442 5.516-.543 1.63-.742 2.81-.828 4.893l-.078 1.897-.69.335c-.379.185-1.001.654-1.387 1.046a5.62 5.62 0 001.564 9.037l.864.418.357 1.187c.389 1.294.836 2.31 1.492 3.39.477.785.495.85.245.85-.357 0-2.239.655-3.217 1.12-1.696.805-3.21 1.887-4.615 3.299-2.318 2.329-3.69 4.85-4.461 8.2-.242 1.05-.258 1.541-.3 9.266L0 63.008h50v-7.664c-.002-8.284-.04-8.904-.677-11.112-.434-1.502-1.607-3.838-2.567-5.11-2.043-2.707-5.05-4.85-8.182-5.834-.562-.177-1.102-.321-1.2-.321-.24 0-.224-.116.075-.554.68-.996 1.536-2.968 1.835-4.222.15-.636.173-.66.91-.999 2.962-1.36 4.176-4.723 2.762-7.645-.47-.973-1.494-2.025-2.449-2.52l-.69-.356-.074-1.856c-.141-3.514-.811-5.72-2.527-8.32-1.657-2.51-4.527-4.718-7.408-5.699-2.117-.721-4.959-.988-6.956-.653zm4.925 3.884c2.613.68 5.073 2.487 6.604 4.852.782 1.207 1.46 3.213 1.617 4.785.056.56.049.575-.203.443-1.436-.757-3.749-2.94-5.024-4.741l-.801-1.131-.956 1.043c-1.847 2.019-4.732 3.533-8.546 4.485-2.147.536-6.25 1.068-6.478.84-.143-.141.232-2.35.576-3.394C15.796 7.467 19.092 4.592 23 3.85c1.288-.244 3.47-.164 4.777.176zm2.164 10.178c.432.467 2.298 2.032 2.945 2.47.72.488 1.752 1.007 2.524 1.27l.616.208.035.93.036.928 1.198.048c.975.039 1.282.1 1.649.326.966.598 1.217 2.015.507 2.859-.507.602-.89.735-2.124.735-1.272 0-1.165-.116-1.307 1.416-.542 5.807-5.23 10.147-10.97 10.156-5.851.008-10.516-4.325-11.065-10.28-.127-1.38-.036-1.292-1.342-1.292-1.36 0-1.807-.22-2.264-1.11-.326-.633-.293-1.272.096-1.9.403-.65.906-.854 2.25-.91l1.2-.049v-.783c0-.914-.102-.856 1.724-.974 2.734-.177 6.374-.942 8.821-1.853 1.3-.484 3.77-1.697 4.476-2.199.547-.388.631-.388.995.004zm-9.305 33.608c3.86 6.199 7.036 11.323 7.059 11.386.025.071-2.67.116-6.986.116h-7.027l-.032-4.895-.032-4.894-1.816-.034-1.816-.034v9.857H3.692l.043-6.187.043-6.187.323-1.184c.614-2.258 1.704-4.165 3.309-5.79.956-.968 2.563-2.108 3.638-2.582.648-.286 2.246-.835 2.447-.84.067-.002 3.28 5.068 7.14 11.268zm17.816-10.639c2.969 1.133 5.661 3.848 6.943 7.002.824 2.029.825 2.042.879 8.89l.048 6.249h-6.295v-9.857l-1.816.034-1.816.035-.032 4.896-.032 4.897-2.113-.033-2.113-.034-2.613-4.209-2.613-4.208 2.48-3.487 5.045-7.093c2.278-3.205 2.594-3.597 2.832-3.525.147.044.694.244 1.216.443zm-10.22 5.394c-1.875 2.64-3.438 4.798-3.472 4.797-.084-.002-5.81-9.244-5.76-9.295.023-.023.594.147 1.27.376 2.325.79 4.698.995 7.072.61 1.15-.187 3.031-.749 3.675-1.098.182-.1.397-.182.478-.185.081-.002-1.387 2.155-3.263 4.795z" fill="#8D8D8D"/></svg><svg fill="none" viewBox="0 0 20 20" id="phone" xmlns="http://www.w3.org/2000/svg"><path d="M3.882.774c.385.033.76.231 1.127.59.556.545 2.128 2.537 2.249 3.122.134.65-.16 1.166-.422 1.62-.268.467-.982 1.354-.796 1.87 1.057 2.594 3.498 4.858 6.093 5.921.506.184 1.391-.53 1.856-.8.454-.262.967-.562 1.616-.424.582.123 2.568 1.735 3.112 2.293.356.366.555.744.585 1.122.054 1.482-1.96 3.174-2.326 3.384a2.825 2.825 0 01-1.69.528c-.65 0-1.375-.185-2.166-.554C8.83 17.656 2.276 11.231.543 6.974-.177 5.389-.181 4.082.53 3.1.815 2.639 2.433.713 3.88.774zm8.427 2.702l.11.014a5.174 5.174 0 014.1 4.11.865.865 0 01-.843 1.026.86.86 0 01-.84-.695A3.462 3.462 0 0012.09 5.18a.862.862 0 01-.677-1.01.854.854 0 011.004-.68l-.109-.014zM12.244 0l.112.008c4.044.45 7.184 3.6 7.638 7.657a.856.856 0 11-1.704.192 6.912 6.912 0 00-6.125-6.14.86.86 0 01-.757-.949.853.853 0 01.322-.584.817.817 0 01.626-.176L12.244 0z" fill="#F6F6F6"/></svg><svg fill="none" viewBox="0 0 35 36" id="phone2" xmlns="http://www.w3.org/2000/svg"><path d="M29.872 5.27c-6.835-7.028-17.915-7.027-24.748.004-6.833 7.03-6.832 18.427.004 25.456 6.835 7.028 17.915 7.027 24.748-.004 3.282-3.377 5.125-7.956 5.124-12.73-.001-4.773-1.845-9.351-5.128-12.726zm-3.369 19.804l-.002.002v-.006l-.887.906a4.581 4.581 0 01-4.404 1.296 15.3 15.3 0 01-4.503-2.076 20.933 20.933 0 01-3.553-2.946 21.448 21.448 0 01-2.654-3.312 16.997 16.997 0 01-1.995-4.152 4.896 4.896 0 011.167-4.902l1.038-1.068a.726.726 0 011.048-.002l.002.002 3.278 3.372c.29.297.291.78.003 1.078l-.003.002-1.925 1.98a1.648 1.648 0 00-.163 2.1 23.01 23.01 0 002.304 2.766 22.54 22.54 0 003.033 2.622c.627.45 1.477.374 2.019-.18l1.86-1.944a.726.726 0 011.048-.002l.003.002 3.284 3.384c.29.297.29.78.002 1.078z" fill="#F6F6F6"/></svg><svg fill="none" viewBox="0 0 19 18" id="telegram" xmlns="http://www.w3.org/2000/svg"><path d="M9.5 0c-4.968 0-9 4.032-9 9s4.032 9 9 9 9-4.032 9-9-4.032-9-9-9zm4.176 6.12c-.135 1.422-.72 4.878-1.017 6.471-.126.675-.378.9-.612.927-.522.045-.918-.342-1.422-.675-.792-.522-1.242-.846-2.007-1.35-.891-.585-.315-.909.198-1.431.135-.135 2.439-2.232 2.484-2.421a.18.18 0 00-.045-.162c-.054-.045-.126-.027-.189-.018-.081.018-1.341.855-3.798 2.511-.36.243-.684.369-.972.36-.324-.009-.936-.18-1.395-.333-.567-.18-1.008-.279-.972-.594.018-.162.243-.324.666-.495 2.628-1.143 4.374-1.899 5.247-2.259 2.502-1.044 3.015-1.224 3.357-1.224.072 0 .243.018.351.108.09.072.117.171.126.243-.009.054.009.216 0 .342z" fill="#4F5D75"/></svg><svg viewBox="0 0 44 27" id="top-dark" xmlns="http://www.w3.org/2000/svg"><path fill-rule="evenodd" clip-rule="evenodd" d="M1.452 12.09l10.924-4.652 9.728-4.142 9.763 4.057 10.964 4.557 1.151-2.77L33.02 4.583 22.139.062l-.014-.036-.035.015-.035-.015-.015.036L11.2 4.678.278 9.33l1.175 2.76zm-.238 7l10.924-4.651 9.728-4.143 9.763 4.058 10.964 4.557 1.151-2.77-10.964-4.557-10.879-4.521-.015-.036-.034.015-.036-.015-.015.036-10.839 4.616L.038 16.33l1.176 2.76zm10.954 2.35L1.244 26.09l-1.175-2.76 10.924-4.652 10.839-4.615.015-.037.035.015.034-.015.016.036 10.879 4.521 10.964 4.557-1.152 2.77-10.964-4.556-9.763-4.058-9.728 4.142z" fill="#2D3142"/></svg><svg viewBox="0 0 76 76" id="top-dark2" xmlns="http://www.w3.org/2000/svg"><path fill-rule="evenodd" clip-rule="evenodd" d="M37.677.001C16.691.18-.177 17.337.001 38.323.18 59.31 17.337 76.177 38.323 76 59.31 75.82 76.177 58.663 76 37.677 75.82 16.691 58.663-.177 37.677.001zm.032 3.8c18.888-.16 34.33 15.02 34.49 33.908.16 18.888-15.02 34.33-33.908 34.49-18.888.16-34.33-15.02-34.49-33.908C3.641 19.403 18.821 3.96 37.71 3.8zm-9.333 28.637L17.452 37.09l-1.176-2.76 10.925-4.652 10.839-4.616.014-.036.036.015.034-.015.015.036 10.88 4.521 10.963 4.557-1.151 2.77-10.964-4.557-9.763-4.058-9.728 4.143zm-.239 7.001l-10.923 4.652-1.176-2.76 10.924-4.652 10.84-4.616.014-.036.035.015.035-.015.015.036 10.88 4.521 10.963 4.557-1.151 2.77-10.964-4.557-9.764-4.057-9.728 4.142zM17.244 51.091l10.924-4.652 9.728-4.142 9.763 4.058 10.964 4.556 1.151-2.77-10.964-4.557-10.879-4.521-.015-.036-.034.015-.035-.014-.015.035-10.84 4.616-10.924 4.652 1.176 2.76z"/></svg><svg viewBox="0 0 44 27" id="top-white" xmlns="http://www.w3.org/2000/svg"><path fill-rule="evenodd" clip-rule="evenodd" d="M1.452 12.09l10.924-4.652 9.728-4.142 9.763 4.057 10.964 4.557 1.151-2.77L33.02 4.583 22.139.062l-.014-.036-.035.015-.035-.015-.015.036L11.2 4.678.278 9.33l1.175 2.76zm-.238 7l10.924-4.651 9.728-4.143 9.763 4.058 10.964 4.557 1.151-2.77-10.964-4.557-10.879-4.521-.015-.036-.034.015-.036-.015-.015.036-10.839 4.616L.038 16.33l1.176 2.76zm10.954 2.35L1.244 26.09l-1.175-2.76 10.924-4.652 10.839-4.615.015-.037.035.015.034-.015.016.036 10.879 4.521 10.964 4.557-1.152 2.77-10.964-4.556-9.763-4.058-9.728 4.142z" fill="#F6F6F6"/></svg><svg fill="none" viewBox="0 0 18 18" id="viber" xmlns="http://www.w3.org/2000/svg"><path d="M17.597 4.327l-.005-.02c-.434-1.699-2.392-3.521-4.19-3.9l-.02-.004a24.052 24.052 0 00-8.764 0l-.02.004C2.8.786.841 2.608.407 4.307l-.005.02a16.07 16.07 0 000 7.15l.004.02c.417 1.626 2.229 3.365 3.96 3.843v1.896c0 .686.864 1.023 1.355.528l1.986-1.996a23.922 23.922 0 005.674-.366l.02-.004c1.798-.38 3.756-2.202 4.19-3.9l.005-.021a16.07 16.07 0 000-7.15zm-1.57 6.806c-.29 1.108-1.777 2.485-2.958 2.74a22.412 22.412 0 01-4.662.364c-.03 0-.06.011-.082.033l-1.45 1.44-1.542 1.53c-.112.114-.31.037-.31-.12v-3.141a.11.11 0 00-.091-.106c-1.182-.255-2.668-1.632-2.959-2.74a14.582 14.582 0 010-6.462c.29-1.108 1.777-2.485 2.958-2.74 2.7-.497 5.438-.497 8.138 0 1.181.255 2.667 1.632 2.957 2.74a14.565 14.565 0 010 6.462z" fill="#4F5D75"/><path d="M11.569 12.583c-.182-.054-.355-.09-.515-.154-1.666-.668-3.198-1.53-4.412-2.853-.69-.751-1.23-1.6-1.687-2.498-.217-.426-.4-.868-.586-1.308-.17-.401.08-.815.344-1.118.247-.283.564-.5.908-.66.269-.125.534-.053.73.167A9.11 9.11 0 017.48 5.688c.194.34.14.754-.211.985-.085.056-.163.122-.243.186a.782.782 0 00-.183.187.498.498 0 00-.035.45c.433 1.152 1.163 2.048 2.362 2.53.192.078.385.168.606.143.37-.042.49-.435.75-.64.253-.2.577-.203.85-.036s.538.347.8.528c.26.178.516.352.755.555.229.196.308.452.179.717-.236.485-.58.889-1.076 1.146-.14.073-.307.097-.465.144.158-.047-.182-.054 0 0zM9.004 3.437c2.178.06 3.967 1.458 4.35 3.541.065.355.089.718.118 1.078.012.152-.077.296-.246.298-.174.002-.253-.14-.264-.291-.023-.3-.038-.601-.081-.898-.225-1.57-1.52-2.869-3.134-3.148-.243-.042-.492-.053-.738-.078-.156-.015-.36-.024-.394-.212-.029-.157.108-.282.262-.29.042-.002.084 0 .127 0-.043 0 2.178.06 0 0z" fill="#4F5D75"/><path d="M12.314 7.589c-.004.026-.006.088-.022.146-.057.212-.389.238-.465.025a.614.614 0 01-.026-.204c-.001-.446-.101-.892-.334-1.28-.24-.4-.605-.735-1.033-.938-.26-.123-.54-.2-.823-.245-.125-.02-.25-.032-.375-.048-.15-.02-.232-.114-.224-.258.006-.135.108-.232.26-.224.5.028.983.132 1.428.36.903.463 1.42 1.194 1.57 2.17.007.044.018.088.021.132.009.11.014.219.023.364-.009-.145-.004.026 0 0z" fill="#4F5D75"/><path d="M10.959 7.538c-.182.003-.28-.095-.299-.256-.013-.113-.023-.227-.051-.337a.944.944 0 00-.361-.548.96.96 0 00-.295-.138c-.133-.037-.272-.027-.405-.059-.145-.034-.225-.147-.203-.279.021-.12.141-.213.277-.203.844.059 1.448.481 1.534 1.443.006.068.013.14-.003.205a.214.214 0 01-.194.172c.083-.006-.183.003 0 0z" fill="#4F5D75"/></svg><svg fill="none" viewBox="0 0 21 20" id="whatsapp" xmlns="http://www.w3.org/2000/svg"><path d="M17.55 2.91A9.82 9.82 0 0010.54 0C5.08 0 .63 4.45.63 9.91c0 1.75.46 3.45 1.32 4.95L.55 20l5.25-1.38c1.45.79 3.08 1.21 4.74 1.21 5.46 0 9.91-4.45 9.91-9.91 0-2.65-1.03-5.14-2.9-7.01zm-7.01 15.24c-1.48 0-2.93-.4-4.2-1.15l-.3-.18-3.12.82.83-3.04-.2-.31a8.26 8.26 0 01-1.26-4.38c0-4.54 3.7-8.24 8.24-8.24 2.2 0 4.27.86 5.82 2.42a8.18 8.18 0 012.41 5.83c.02 4.54-3.68 8.23-8.22 8.23zm4.52-6.16c-.25-.12-1.47-.72-1.69-.81-.23-.08-.39-.12-.56.12-.17.25-.64.81-.78.97-.14.17-.29.19-.54.06-.25-.12-1.05-.39-1.99-1.23-.74-.66-1.23-1.47-1.38-1.72-.14-.25-.02-.38.11-.51.11-.11.25-.29.37-.43s.17-.25.25-.41c.08-.17.04-.31-.02-.43s-.56-1.34-.76-1.84c-.2-.48-.41-.42-.56-.43h-.48c-.17 0-.43.06-.66.31-.22.25-.86.85-.86 2.07 0 1.22.89 2.4 1.01 2.56.12.17 1.75 2.67 4.23 3.74.59.26 1.05.41 1.41.52.59.19 1.13.16 1.56.1.48-.07 1.47-.6 1.67-1.18.21-.58.21-1.07.14-1.18-.07-.11-.22-.16-.47-.28z" fill="#4F5D75"/></svg></svg>