<?xml version="1.0" encoding="utf-8"?><svg viewBox="0 0 50 64" xmlns="http://www.w3.org/2000/svg" xmlns:xlink="http://www.w3.org/1999/xlink"><style>:root>svg{display:none}:root>svg:target{display:block}</style><svg viewBox="0 0 27 24" id="arrow-slider" xmlns="http://www.w3.org/2000/svg"><path d="M.94 10.94a1.5 1.5 0 000 2.12l9.545 9.547a1.5 1.5 0 102.122-2.122L4.12 12l8.486-8.485a1.5 1.5 0 10-2.122-2.122L.94 10.94zM27 10.5H2v3h25v-3z"/></svg><svg fill="none" viewBox="0 0 50 51" id="clock" xmlns="http://www.w3.org/2000/svg"><path fill-rule="evenodd" clip-rule="evenodd" d="M22.68.058c-7.507.73-14.207 4.698-18.42 10.91C2.102 14.15.794 17.547.173 21.584.044 22.422 0 23.301 0 25.01c0 1.71.044 2.589.173 3.425.87 5.656 3.231 10.396 7.116 14.281s8.625 6.247 14.282 7.117c1.576.242 5.273.242 6.85 0 5.656-.87 10.396-3.232 14.28-7.117 3.886-3.885 6.248-8.625 7.117-14.28.243-1.577.243-5.274 0-6.851-.87-5.656-3.231-10.396-7.116-14.281-3.859-3.859-8.655-6.26-14.183-7.099-1.223-.185-4.577-.27-5.84-.147zm4.765 4.21c3.728.461 7.245 1.903 10.302 4.225 1.03.782 2.983 2.735 3.766 3.766 2.322 3.057 3.764 6.573 4.224 10.302.132 1.068.132 3.83 0 4.898-.46 3.729-1.903 7.245-4.224 10.303-.782 1.03-2.735 2.983-3.766 3.765-3.057 2.322-6.574 3.764-10.302 4.225-.456.056-1.558.102-2.45.102-2.513 0-4.276-.278-6.556-1.036-3.138-1.043-5.782-2.685-8.174-5.077-2.392-2.392-4.035-5.036-5.077-8.174-.758-2.28-1.037-4.044-1.037-6.557 0-.89.046-1.993.103-2.449.46-3.729 1.903-7.245 4.224-10.302.783-1.03 2.736-2.984 3.766-3.766 3.002-2.28 6.553-3.752 10.168-4.216.967-.124 4.057-.13 5.033-.009zm-3.06 9.329c-.762.282-1.243.779-1.434 1.48-.07.256-.107 1.89-.108 4.698v4.306L17.9 29.023c-5.394 5.392-5.3 5.279-5.215 6.303a2.07 2.07 0 001.897 1.897c1.1.091.921.239 6.775-5.595 2.998-2.986 5.41-5.468 5.53-5.688.21-.385.213-.47.244-5.334.02-3.333-.004-5.103-.076-5.437-.256-1.176-1.601-1.969-2.67-1.572z" fill="#8D8D8D"/></svg><svg fill="none" viewBox="0 0 20 20" id="facebook" xmlns="http://www.w3.org/2000/svg"><path d="M10 0C4.477 0 0 4.477 0 10s4.477 10 10 10 10-4.477 10-10S15.523 0 10 0zm2.369 6.91h-1.503c-.178 0-.376.235-.376.546v1.086h1.88l-.285 1.548H10.49v4.646H8.716V10.09h-1.61V8.542h1.61v-.91c0-1.307.906-2.368 2.15-2.368h1.503V6.91z" fill="#F6F6F6"/></svg><svg fill="none" viewBox="0 0 50 59" id="garanty" xmlns="http://www.w3.org/2000/svg"><path fill-rule="evenodd" clip-rule="evenodd" d="M23.708.25c-.742.311-1.074.547-2.15 1.528-3.982 3.632-8.706 5.556-15.033 6.123-.919.082-1.713.226-2.207.398-1.997.698-3.497 2.354-4.05 4.475-.143.546-.195 1.66-.249 5.393-.09 6.197.134 10.058.823 14.204 1.516 9.12 5.712 16.082 12.683 21.046 3.385 2.411 9.659 5.319 11.476 5.319 1.036 0 3.784-1.04 6.829-2.582 3.198-1.62 5.409-3.124 7.825-5.32 4.003-3.64 7.015-8.67 8.576-14.323 1.383-5.006 1.873-10.176 1.751-18.459-.053-3.623-.106-4.735-.247-5.278-.56-2.148-2.088-3.814-4.136-4.51-.39-.132-1.315-.29-2.124-.363-6.482-.581-10.757-2.353-15.263-6.325C26.94.453 26.16.058 25.116.007c-.588-.028-.886.023-1.408.242zm2.511 4.155c4.656 4.137 9.648 6.224 16.447 6.876 1.418.136 1.875.224 2.296.442.604.314 1.208 1.038 1.38 1.656.192.685.285 9.03.13 11.674-.404 6.938-1.448 11.533-3.597 15.837-2.156 4.319-5.32 7.768-9.714 10.589-1.624 1.042-4.722 2.573-6.697 3.31l-1.463.545-1.463-.545c-2.068-.77-5.345-2.41-7.015-3.508C9.487 46.653 5.575 40.295 4.129 31.135c-.555-3.513-.646-5.15-.635-11.361.007-4.136.05-5.995.147-6.336.188-.67.777-1.392 1.4-1.715.42-.218.877-.306 2.295-.442 6.801-.652 11.806-2.746 16.472-6.893.6-.532 1.138-.968 1.197-.968.059 0 .605.443 1.214.985zm-2.365 10.384c-4.524.364-8.505 2.709-11.054 6.512-3.197 4.77-3.203 11.25-.015 16.085 2.729 4.138 7.244 6.564 12.216 6.564 5.603 0 10.58-3.08 13.113-8.113 1.662-3.303 1.95-7.526.757-11.108-2.114-6.347-8.353-10.477-15.017-9.94zm3.035 3.562c2.091.295 4.175 1.361 5.885 3.01 2.225 2.145 3.373 4.867 3.373 7.996 0 3.137-1.142 5.844-3.373 7.996C30.562 39.485 28.054 40.5 25 40.5s-5.56-1.016-7.772-3.148c-2.239-2.159-3.372-4.847-3.372-7.996 0-3.14 1.14-5.844 3.372-7.997 2.661-2.566 5.825-3.552 9.66-3.01zm2.875 6.121c-.19.086-1.893 1.711-3.787 3.61-1.893 1.9-3.49 3.455-3.55 3.455-.06 0-.604-.486-1.208-1.08-1.263-1.24-1.6-1.383-2.48-1.046-.929.355-1.37 1.475-.92 2.333.09.17.981 1.118 1.98 2.107 1.493 1.478 1.892 1.812 2.238 1.876.936.174.904.199 5.468-4.345 2.356-2.345 4.357-4.403 4.447-4.573.09-.17.165-.537.165-.815 0-1.204-1.26-2.018-2.353-1.522z" fill="#8D8D8D"/></svg><svg fill="none" viewBox="0 0 20 20" id="instagram" xmlns="http://www.w3.org/2000/svg"><path d="M13.125 10a3.125 3.125 0 11-6.25 0c0-.178.019-.352.051-.52H5.833v4.163c0 .29.235.524.524.524h7.287a.524.524 0 00.523-.524V9.479h-1.093c.032.169.051.343.051.521zM10 12.083a2.082 2.082 0 001.925-2.881A2.083 2.083 0 1010 12.083zm2.5-4.27h1.249a.314.314 0 00.313-.313V6.251a.314.314 0 00-.313-.314H12.5a.313.313 0 00-.313.314V7.5a.315.315 0 00.313.313zM10 0a10 10 0 100 20 10 10 0 000-20zm5.208 14.051a1.16 1.16 0 01-1.157 1.157H5.949a1.16 1.16 0 01-1.157-1.157V5.949c0-.636.52-1.157 1.157-1.157h8.102c.636 0 1.157.52 1.157 1.157v8.102z" fill="#F6F6F6"/></svg><svg fill="none" viewBox="0 0 50 64" id="man" xmlns="http://www.w3.org/2000/svg"><path fill-rule="evenodd" clip-rule="evenodd" d="M22.852.143c-3.39.57-5.962 1.886-8.31 4.255-1.607 1.62-2.762 3.47-3.442 5.516-.543 1.63-.742 2.81-.828 4.893l-.078 1.897-.69.335c-.379.185-1.001.654-1.387 1.046a5.62 5.62 0 001.564 9.037l.864.418.357 1.187c.389 1.294.836 2.31 1.492 3.39.477.785.495.85.245.85-.357 0-2.239.655-3.217 1.12-1.696.805-3.21 1.887-4.615 3.299-2.318 2.329-3.69 4.85-4.461 8.2-.242 1.05-.258 1.541-.3 9.266L0 63.008h50v-7.664c-.002-8.284-.04-8.904-.677-11.112-.434-1.502-1.607-3.838-2.567-5.11-2.043-2.707-5.05-4.85-8.182-5.834-.562-.177-1.102-.321-1.2-.321-.24 0-.224-.116.075-.554.68-.996 1.536-2.968 1.835-4.222.15-.636.173-.66.91-.999 2.962-1.36 4.176-4.723 2.762-7.645-.47-.973-1.494-2.025-2.449-2.52l-.69-.356-.074-1.856c-.141-3.514-.811-5.72-2.527-8.32-1.657-2.51-4.527-4.718-7.408-5.699-2.117-.721-4.959-.988-6.956-.653zm4.925 3.884c2.613.68 5.073 2.487 6.604 4.852.782 1.207 1.46 3.213 1.617 4.785.056.56.049.575-.203.443-1.436-.757-3.749-2.94-5.024-4.741l-.801-1.131-.956 1.043c-1.847 2.019-4.732 3.533-8.546 4.485-2.147.536-6.25 1.068-6.478.84-.143-.141.232-2.35.576-3.394C15.796 7.467 19.092 4.592 23 3.85c1.288-.244 3.47-.164 4.777.176zm2.164 10.178c.432.467 2.298 2.032 2.945 2.47.72.488 1.752 1.007 2.524 1.27l.616.208.035.93.036.928 1.198.048c.975.039 1.282.1 1.649.326.966.598 1.217 2.015.507 2.859-.507.602-.89.735-2.124.735-1.272 0-1.165-.116-1.307 1.416-.542 5.807-5.23 10.147-10.97 10.156-5.851.008-10.516-4.325-11.065-10.28-.127-1.38-.036-1.292-1.342-1.292-1.36 0-1.807-.22-2.264-1.11-.326-.633-.293-1.272.096-1.9.403-.65.906-.854 2.25-.91l1.2-.049v-.783c0-.914-.102-.856 1.724-.974 2.734-.177 6.374-.942 8.821-1.853 1.3-.484 3.77-1.697 4.476-2.199.547-.388.631-.388.995.004zm-9.305 33.608c3.86 6.199 7.036 11.323 7.059 11.386.025.071-2.67.116-6.986.116h-7.027l-.032-4.895-.032-4.894-1.816-.034-1.816-.034v9.857H3.692l.043-6.187.043-6.187.323-1.184c.614-2.258 1.704-4.165 3.309-5.79.956-.968 2.563-2.108 3.638-2.582.648-.286 2.246-.835 2.447-.84.067-.002 3.28 5.068 7.14 11.268zm17.816-10.639c2.969 1.133 5.661 3.848 6.943 7.002.824 2.029.825 2.042.879 8.89l.048 6.249h-6.295v-9.857l-1.816.034-1.816.035-.032 4.896-.032 4.897-2.113-.033-2.113-.034-2.613-4.209-2.613-4.208 2.48-3.487 5.045-7.093c2.278-3.205 2.594-3.597 2.832-3.525.147.044.694.244 1.216.443zm-10.22 5.394c-1.875 2.64-3.438 4.798-3.472 4.797-.084-.002-5.81-9.244-5.76-9.295.023-.023.594.147 1.27.376 2.325.79 4.698.995 7.072.61 1.15-.187 3.031-.749 3.675-1.098.182-.1.397-.182.478-.185.081-.002-1.387 2.155-3.263 4.795z" fill="#8D8D8D"/></svg><svg fill="none" viewBox="0 0 20 20" id="phone" xmlns="http://www.w3.org/2000/svg"><path d="M3.882.774c.385.033.76.231 1.127.59.556.545 2.128 2.537 2.249 3.122.134.65-.16 1.166-.422 1.62-.268.467-.982 1.354-.796 1.87 1.057 2.594 3.498 4.858 6.093 5.921.506.184 1.391-.53 1.856-.8.454-.262.967-.562 1.616-.424.582.123 2.568 1.735 3.112 2.293.356.366.555.744.585 1.122.054 1.482-1.96 3.174-2.326 3.384a2.825 2.825 0 01-1.69.528c-.65 0-1.375-.185-2.166-.554C8.83 17.656 2.276 11.231.543 6.974-.177 5.389-.181 4.082.53 3.1.815 2.639 2.433.713 3.88.774zm8.427 2.702l.11.014a5.174 5.174 0 014.1 4.11.865.865 0 01-.843 1.026.86.86 0 01-.84-.695A3.462 3.462 0 0012.09 5.18a.862.862 0 01-.677-1.01.854.854 0 011.004-.68l-.109-.014zM12.244 0l.112.008c4.044.45 7.184 3.6 7.638 7.657a.856.856 0 11-1.704.192 6.912 6.912 0 00-6.125-6.14.86.86 0 01-.757-.949.853.853 0 01.322-.584.817.817 0 01.626-.176L12.244 0z" fill="#F6F6F6"/></svg><svg fill="none" viewBox="0 0 35 36" id="phone2" xmlns="http://www.w3.org/2000/svg"><path d="M29.872 5.27c-6.835-7.028-17.915-7.027-24.748.004-6.833 7.03-6.832 18.427.004 25.456 6.835 7.028 17.915 7.027 24.748-.004 3.282-3.377 5.125-7.956 5.124-12.73-.001-4.773-1.845-9.351-5.128-12.726zm-3.369 19.804l-.002.002v-.006l-.887.906a4.581 4.581 0 01-4.404 1.296 15.3 15.3 0 01-4.503-2.076 20.933 20.933 0 01-3.553-2.946 21.448 21.448 0 01-2.654-3.312 16.997 16.997 0 01-1.995-4.152 4.896 4.896 0 011.167-4.902l1.038-1.068a.726.726 0 011.048-.002l.002.002 3.278 3.372c.29.297.291.78.003 1.078l-.003.002-1.925 1.98a1.648 1.648 0 00-.163 2.1 23.01 23.01 0 002.304 2.766 22.54 22.54 0 003.033 2.622c.627.45 1.477.374 2.019-.18l1.86-1.944a.726.726 0 011.048-.002l.003.002 3.284 3.384c.29.297.29.78.002 1.078z" fill="#F6F6F6"/></svg><svg fill="none" viewBox="0 0 35 36" id="viber" xmlns="http://www.w3.org/2000/svg"><ellipse cx="17.5" cy="18" rx="17.5" ry="18" fill="#F6F6F6"/><path d="M26.109 13.469l-.006-.022c-.422-1.753-2.325-3.636-4.073-4.027l-.02-.004a22.04 22.04 0 00-8.52 0l-.02.004c-1.748.391-3.651 2.274-4.074 4.027l-.005.022a17.602 17.602 0 000 7.383l.005.021c.405 1.68 2.166 3.475 3.85 3.968V26.8c0 .71.84 1.057 1.317.546l1.93-2.062a21.87 21.87 0 005.517-.378l.02-.004c1.748-.392 3.651-2.274 4.073-4.028l.005-.021c.522-2.45.522-4.934 0-7.383zm-1.528 7.028c-.282 1.144-1.727 2.566-2.875 2.83-1.504.293-3.019.418-4.532.375-.03 0-.06.012-.08.034l-1.41 1.487-1.499 1.58c-.11.118-.302.038-.302-.124v-3.243c0-.054-.037-.1-.088-.11-1.149-.262-2.594-1.685-2.877-2.83a15.97 15.97 0 010-6.672c.283-1.144 1.727-2.567 2.876-2.83a20.522 20.522 0 017.912 0c1.149.263 2.593 1.686 2.875 2.83.47 2.214.47 4.458 0 6.673z" fill="#4F5D75"/><path d="M20.248 21.994c-.177-.055-.345-.092-.501-.159-1.62-.69-3.11-1.58-4.29-2.946-.67-.776-1.196-1.652-1.64-2.58-.21-.44-.388-.897-.569-1.35-.165-.415.078-.842.334-1.155.24-.292.549-.516.883-.682.261-.129.519-.054.71.173.412.492.79 1.009 1.097 1.579.189.35.137.779-.205 1.017-.083.058-.159.126-.236.192a.788.788 0 00-.178.193.542.542 0 00-.035.464c.422 1.19 1.132 2.116 2.298 2.614.186.08.373.173.588.147.36-.043.477-.449.729-.66.246-.208.561-.21.827-.038.265.173.523.358.779.546.25.183.5.363.733.573.222.202.299.466.174.74-.23.5-.564.918-1.046 1.184-.136.075-.299.1-.452.148-.177-.055.153-.049 0 0zM17.753 12.55c2.118.06 3.857 1.505 4.23 3.656.064.367.086.741.114 1.114.012.156-.074.305-.238.307-.17.002-.246-.144-.257-.3-.022-.31-.037-.621-.079-.928-.219-1.621-1.477-2.963-3.047-3.25-.236-.044-.478-.055-.717-.08-.152-.017-.35-.027-.383-.22-.029-.162.105-.29.255-.3.04-.002.081 0 .122 0 2.118.061-.04 0 0 0z" fill="#4F5D75"/><path d="M20.972 16.837c-.004.027-.006.09-.021.15-.056.22-.379.247-.453.026a.673.673 0 01-.025-.21c-.001-.461-.098-.921-.325-1.323a2.424 2.424 0 00-1.004-.968 2.83 2.83 0 00-.8-.252c-.121-.02-.243-.033-.364-.05-.147-.022-.226-.118-.219-.267.007-.139.106-.24.254-.23.486.028.955.136 1.387.37.879.479 1.38 1.233 1.527 2.241.007.046.017.091.02.137.01.113.014.226.023.376-.004.027-.009-.15 0 0z" fill="#4F5D75"/><path d="M19.654 16.784c-.177.003-.272-.098-.29-.264-.013-.117-.023-.235-.05-.348a.98.98 0 00-.351-.566.91.91 0 00-.286-.142c-.13-.039-.265-.028-.395-.061-.14-.035-.218-.153-.196-.288a.255.255 0 01.268-.21c.821.06 1.408.497 1.492 1.49.006.07.013.144-.002.211-.026.115-.11.172-.19.178-.177.003.08-.006 0 0z" fill="#4F5D75"/></svg></svg>