<svg width="19" height="18" viewBox="0 0 19 18" fill="none" xmlns="http://www.w3.org/2000/svg">
<path d="M9.5 0C4.532 0 0.5 4.032 0.5 9C0.5 13.968 4.532 18 9.5 18C14.468 18 18.5 13.968 18.5 9C18.5 4.032 14.468 0 9.5 0ZM13.676 6.12C13.541 7.542 12.956 10.998 12.659 12.591C12.533 13.266 12.281 13.491 12.047 13.518C11.525 13.563 11.129 13.176 10.625 12.843C9.833 12.321 9.383 11.997 8.618 11.493C7.727 10.908 8.303 10.584 8.816 10.062C8.951 9.927 11.255 7.83 11.3 7.641C11.3063 7.61237 11.3054 7.58265 11.2976 7.55442C11.2897 7.52619 11.2751 7.5003 11.255 7.479C11.201 7.434 11.129 7.452 11.066 7.461C10.985 7.479 9.725 8.316 7.268 9.972C6.908 10.215 6.584 10.341 6.296 10.332C5.972 10.323 5.36 10.152 4.901 9.999C4.334 9.819 3.893 9.72 3.929 9.405C3.947 9.243 4.172 9.081 4.595 8.91C7.223 7.767 8.969 7.011 9.842 6.651C12.344 5.607 12.857 5.427 13.199 5.427C13.271 5.427 13.442 5.445 13.55 5.535C13.64 5.607 13.667 5.706 13.676 5.778C13.667 5.832 13.685 5.994 13.676 6.12Z" fill="#4F5D75"/>
</svg>
