<svg width="44" height="27" viewBox="0 0 44 27" xmlns="http://www.w3.org/2000/svg">
<path fill-rule="evenodd" clip-rule="evenodd" d="M1.45197 12.0898L12.3759 7.43803L22.1039 3.29556L31.8672 7.35328L42.8311 11.91L43.9825 9.13973L33.0186 4.58301L22.1396 0.0616131L22.1245 0.026123L22.0898 0.040905L22.0546 0.026289L22.0397 0.0622425L11.2006 4.67786L0.276611 9.32961L1.45197 12.0898ZM1.21369 19.0908L12.1376 14.439L21.8657 10.2965L31.6289 14.3543L42.5929 18.911L43.7442 16.1407L32.7803 11.584L21.9014 7.06259L21.8862 7.0271L21.8515 7.04188L21.8164 7.02726L21.8014 7.06322L10.9623 11.6788L0.0383301 16.3306L1.21369 19.0908ZM12.1679 21.4393L1.24397 26.091L0.0686035 23.3308L10.9926 18.6791L21.8317 14.0635L21.8466 14.0275L21.8818 14.0421L21.9165 14.0273L21.9316 14.0628L32.8106 18.5842L43.7745 23.1409L42.6231 25.9112L31.6592 21.3545L21.8959 17.2968L12.1679 21.4393Z" fill="#2D3142" />
</svg>
