<svg width="76" height="76" viewBox="0 0 76 76" fill="none" xmlns="http://www.w3.org/2000/svg">
<path fill-rule="evenodd" clip-rule="evenodd" d="M37.677 0.00140248C16.6909 0.179823 -0.177018 17.337 0.00140248 38.3231C0.179823 59.3092 17.337 76.1771 38.3231 75.9987C59.3092 75.8202 76.1771 58.663 75.9987 37.677C75.8202 16.6909 58.663 -0.177018 37.677 0.00140248ZM37.7093 3.80126C56.5967 3.64069 72.0382 18.8218 72.1988 37.7093C72.3594 56.5967 57.1782 72.0382 38.2908 72.1988C19.4033 72.3594 3.96184 57.1782 3.80126 38.2908C3.64069 19.4033 18.8218 3.96184 37.7093 3.80126ZM28.3758 32.438L17.4519 37.0897L16.2765 34.3296L27.2005 29.6778L38.0396 25.0622L38.0545 25.0263L38.0897 25.0409L38.1244 25.0261L38.1395 25.0616L49.0185 29.583L59.9824 34.1397L58.831 36.91L47.8671 32.3532L38.1038 28.2955L28.3758 32.438ZM28.1375 39.439L17.2136 44.0907L16.0382 41.3306L26.9622 36.6788L37.8013 32.0632L37.8162 32.0272L37.8514 32.0418L37.8861 32.0271L37.9012 32.0626L48.7802 36.584L59.7441 41.1407L58.5928 43.9109L47.6288 39.3542L37.8655 35.2965L28.1375 39.439ZM17.2439 51.091L28.1678 46.4392L37.8958 42.2967L47.6591 46.3545L58.623 50.9112L59.7744 48.1409L48.8105 43.5842L37.9315 39.0628L37.9164 39.0273L37.8817 39.0421L37.8465 39.0275L37.8316 39.0634L26.9925 43.6791L16.0685 48.3308L17.2439 51.091Z" fill="#2D3142"/>
</svg>
