<svg width="21" height="20" viewBox="0 0 21 20" fill="none" xmlns="http://www.w3.org/2000/svg">
<path d="M17.55 2.91005C16.6331 1.98416 15.541 1.25002 14.3375 0.750416C13.134 0.250812 11.8431 -0.00426317 10.54 5.38951e-05C5.07999 5.38951e-05 0.629988 4.45005 0.629988 9.91005C0.629988 11.6601 1.08999 13.3601 1.94999 14.8601L0.549988 20.0001L5.79999 18.6201C7.24999 19.4101 8.87999 19.8301 10.54 19.8301C16 19.8301 20.45 15.3801 20.45 9.92005C20.45 7.27005 19.42 4.78005 17.55 2.91005ZM10.54 18.1501C9.05999 18.1501 7.60999 17.7501 6.33999 17.0001L6.03999 16.8201L2.91999 17.6401L3.74999 14.6001L3.54999 14.2901C2.72754 12.9771 2.29091 11.4593 2.28999 9.91005C2.28999 5.37005 5.98999 1.67005 10.53 1.67005C12.73 1.67005 14.8 2.53005 16.35 4.09005C17.1176 4.85392 17.7259 5.7626 18.1396 6.76338C18.5533 7.76417 18.7642 8.83714 18.76 9.92005C18.78 14.4601 15.08 18.1501 10.54 18.1501ZM15.06 11.9901C14.81 11.8701 13.59 11.2701 13.37 11.1801C13.14 11.1001 12.98 11.0601 12.81 11.3001C12.64 11.5501 12.17 12.1101 12.03 12.2701C11.89 12.4401 11.74 12.4601 11.49 12.3301C11.24 12.2101 10.44 11.9401 9.49999 11.1001C8.75999 10.4401 8.26999 9.63005 8.11999 9.38005C7.97999 9.13005 8.09999 9.00005 8.22999 8.87005C8.33999 8.76005 8.47999 8.58005 8.59999 8.44005C8.71999 8.30005 8.76999 8.19005 8.84999 8.03005C8.92999 7.86005 8.88999 7.72005 8.82999 7.60005C8.76999 7.48005 8.26999 6.26005 8.06999 5.76005C7.86999 5.28005 7.65999 5.34005 7.50999 5.33005H7.02999C6.85999 5.33005 6.59999 5.39005 6.36999 5.64005C6.14999 5.89005 5.50999 6.49005 5.50999 7.71005C5.50999 8.93005 6.39999 10.1101 6.51999 10.2701C6.63999 10.4401 8.26999 12.9401 10.75 14.0101C11.34 14.2701 11.8 14.4201 12.16 14.5301C12.75 14.7201 13.29 14.6901 13.72 14.6301C14.2 14.5601 15.19 14.0301 15.39 13.4501C15.6 12.8701 15.6 12.3801 15.53 12.2701C15.46 12.1601 15.31 12.1101 15.06 11.9901Z" fill="#4F5D75"/>
</svg>
