<?xml version="1.0" standalone="no"?>
<!DOCTYPE svg PUBLIC "-//W3C//DTD SVG 20010904//EN"
 "http://www.w3.org/TR/2001/REC-SVG-20010904/DTD/svg10.dtd">
<svg version="1.0" xmlns="http://www.w3.org/2000/svg"
 width="360.000000pt" height="360.000000pt" viewBox="0 0 360.000000 360.000000"
 preserveAspectRatio="xMidYMid meet">
<metadata>
Created by potrace 1.14, written by Peter Selinger 2001-2017
</metadata>
<g transform="translate(0.000000,360.000000) scale(0.100000,-0.100000)"
fill="#000000" stroke="none">
<path d="M1595 3590 c-145 -22 -145 -22 -270 -55 -211 -56 -400 -149 -615
-302 -133 -95 -310 -286 -422 -458 -121 -186 -224 -440 -254 -631 -3 -21 -7
-41 -9 -44 -10 -16 -19 -162 -20 -295 0 -157 7 -249 24 -325 5 -25 12 -57 14
-71 20 -111 95 -317 160 -439 221 -419 588 -731 1032 -878 178 -59 336 -85
540 -87 155 -2 196 0 320 19 233 36 492 139 701 279 116 77 144 100 262 212
183 173 345 426 436 677 31 86 75 262 91 368 13 84 13 392 -1 480 -30 197 -69
333 -145 501 -141 313 -378 588 -667 774 -71 46 -277 152 -310 161 -9 2 -57
18 -106 34 -88 31 -194 56 -271 66 -22 3 -47 8 -55 11 -23 9 -379 11 -435 3z"/>
</g>
</svg>
